<?xml version="1.0" encoding="UTF-8"?>
<svg id="Capa_1" xmlns="http://www.w3.org/2000/svg" viewBox="0 0 256 256">
  <defs>
    <style>
      .cls-1 {
        fill: #3b3b67;
      }

      .cls-2 {
        fill: #2a2650;
      }

      .cls-3 {
        fill: #26254b;
      }

      .cls-4 {
        fill: #515972;
      }

      .cls-5 {
        fill: #72f4fb;
      }

      .cls-6 {
        fill: #caf8fd;
      }

      .cls-7 {
        fill: #312b54;
      }

      .cls-8 {
        fill: #3199b2;
      }

      .cls-9 {
        fill: #2e2951;
      }

      .cls-10 {
        fill: #31b9cc;
      }

      .cls-11 {
        fill: #312f5b;
      }

      .cls-12 {
        fill: #97f3f7;
      }

      .cls-13 {
        fill: #28264e;
      }

      .cls-14 {
        fill: #888299;
      }

      .cls-15 {
        fill: #fdca89;
      }

      .cls-16 {
        fill: #4785a6;
      }

      .cls-17 {
        fill: #33cbda;
      }

      .cls-18 {
        fill: #a9eaf0;
      }

      .cls-19 {
        fill: #fff;
      }

      .cls-20 {
        fill: #302e4e;
      }

      .cls-21 {
        fill: #34c6d4;
      }

      .cls-22 {
        fill: #74eaee;
      }

      .cls-23 {
        fill: #4d92b1;
      }

      .cls-24 {
        fill: #79f4fa;
      }

      .cls-25 {
        fill: #ac8b7e;
      }

      .cls-26 {
        fill: #bb8d80;
      }

      .cls-27 {
        fill: #2f2851;
      }

      .cls-28 {
        fill: #9cf0f6;
      }

      .cls-29 {
        fill: #305983;
      }

      .cls-30 {
        fill: #389bb0;
      }

      .cls-31 {
        fill: #6be8f1;
      }

      .cls-32 {
        fill: #6d687f;
      }

      .cls-33 {
        fill: #2f4a6c;
      }

      .cls-34 {
        fill: #fdc988;
      }

      .cls-35 {
        fill: #bc9580;
      }

      .cls-36 {
        fill: #c7c4cd;
      }

      .cls-37 {
        fill: #282a4b;
      }

      .cls-38 {
        fill: #70f5fc;
      }

      .cls-39 {
        fill: #4d99b4;
      }

      .cls-40 {
        fill: #e3e1e5;
      }

      .cls-41 {
        fill: #fefefd;
      }

      .cls-42 {
        fill: #c4c2ce;
      }

      .cls-43 {
        fill: #489bbc;
      }

      .cls-44 {
        fill: #fdfdfc;
      }

      .cls-45 {
        fill: #302c53;
      }

      .cls-46 {
        fill: #3b7191;
      }

      .cls-47 {
        fill: #38375f;
      }

      .cls-48 {
        fill: #312243;
      }

      .cls-49 {
        fill: #3b3e69;
      }

      .cls-50 {
        fill: #2e2952;
      }

      .cls-51 {
        fill: #302a52;
      }

      .cls-52 {
        fill: #6b687e;
      }

      .cls-53 {
        fill: #2e2851;
      }

      .cls-54 {
        fill: #35305c;
      }

      .cls-55 {
        fill: #2b6885;
      }

      .cls-56 {
        fill: #1f2641;
      }

      .cls-57 {
        fill: #322b57;
      }

      .cls-58 {
        fill: #1e2b4a;
      }

      .cls-59 {
        fill: #b2adbb;
      }

      .cls-60 {
        fill: #b1eef4;
      }

      .cls-61 {
        fill: #72f4fd;
      }

      .cls-62 {
        fill: #45cbdb;
      }

      .cls-63 {
        fill: #feffff;
      }

      .cls-64 {
        fill: #302d53;
      }

      .cls-65 {
        fill: #616075;
      }

      .cls-66 {
        fill: #302952;
      }

      .cls-67 {
        fill: #1f244f;
      }

      .cls-68 {
        fill: #fdfdfd;
      }

      .cls-69 {
        fill: #2a2851;
      }

      .cls-70 {
        fill: #bd9082;
      }

      .cls-71 {
        fill: #262f54;
      }

      .cls-72 {
        fill: #c6c4ce;
      }

      .cls-73 {
        fill: #387292;
      }
    </style>
  </defs>
  <path class="cls-2" d="M19.43,131.73c-5.5,9.37-17.7,2.28-14.58-6.2,2.72-6.7,13.88-6,14.7,1.69.07.32.42.58.64.86,2.6.2,5.21.7,7.77-.26-.33-3.63.7-7.14.87-10.73.19-4.07,3.55-4.37,6.32-4.6,1.88-.16,2.55-1.07,2.88-2.36,5.21-20.33,16.69-36.33,33.48-48.65,1.98-1.45,1.23-2.68.47-4.24-5.38-8.11,1.99-10.31,8.32-13.82q5.75-2.81,2.89-8.31c-2.42-2.92-5.1-14.24-9.41-12.52-11.76,1.75-15.24-16.27-2.15-17.65,8.59-.63,10.97,6.24,8.69,13.01-.69,2.06-.86,3.54.18,5.4,2.58,4.62,5.02,9.32,7.5,14,.84,1.58,1.6,2.01,3.62,1.23,5.67-1.5,16.59-7.21,19.65.58,1.24,3.81,2.85,6.85,7.73,4.72,6.59-.68,13.38-.45,19.98.14,1.95-.09,3.96.56,5.22-2.13,4.07-8.71,4.38-6.99,12.87-5.66,2.83.44,5.88.78,8.4,2.5,3,3.26,9.87-14.94,12.11-17.47.74-1.32-.14-2.13-.62-3.15-2-4.19-1.36-8.11,1.73-11.02,6.05-5.58,17.14-.45,15.04,8.37-.63,3.51-4.37,7.91-7.93,7.13-6.38-1.39-6.95,3.33-9,6.71-1.67,2.76-3.07,5.69-4.69,8.49-1.13,1.95-1,3.06,1.36,4.04,3.32,1.38,6.51,3.15,9.63,4.95,4.3,2.49,5.11,4.73,2.77,9.09-5.61,6.82,19.44,14.04,29.47,42.45,1.51,3.7,2.51,7.66,3.27,11.59,3.66,9.65,9.22-7.14,10.25,17.85,2.86.49,5.77,1.69,8.37-.75,2.13-9.26,14.89-7.41,14.93,1.24-.55,8.17-10.89,11.15-14.76,3.4-2.86-.33-5.72-.71-8.55.2-.53,4.14-1.02,8.28-1.61,12.41-.5,3.46-3.57,3.33-5.92,3.75-1.66.29-2.22.42-2.84,2.37-15.39,52.12-58.96,43.57-51.27,55.45,2.81,7.75,1.23,7.98,9.78,11.05,8.54,5.59,7.75-3.41,15.23-3.53,4.73.17,9.42-.27,13.48,3.42,5.28,4.8,5.26,17.43-1.47,21.2-8.2,8.67-21.68.93-22.34-10.13-.54-3.82-3.91-3.51-6.09-5.12,2.9,12.86-5.66,24.74-19.19,23.34-5.71-1.15-9.77-6.5-15.95-5.03-10.16.16-20.32-.47-30.46.35-13.95,11.3-32.08,1.12-30.02-17.46-2.86.26-4.12,1.75-4.67,4.59-1.28,9.34-11.01,16.5-19.51,11.52-11.79-5.82-11.42-22.84,2.37-26.69,15.4-3.14,11.13,9.55,21.66,4.13,4.48-1.33,8.3-3.28,8.52-8.75.38-2.44,2.41-4.41,1.8-7.2-.29-1.32-.48-1.82-1.98-2.12-24.09-4.95-42.89-25.94-49.53-49.06-3.65-7.05-10.69,5.63-10.8-18.57-2.87-.64-5.75-.55-8.63-.06Z"/>
  <path class="cls-51" d="M41.42,197.96c-.33,12.45-17.93,11.9-18.82-.1.72-11.72,18.89-12.42,18.82.1Z"/>
  <path class="cls-66" d="M233.45,197.9c.19,12.62-18.19,12.24-17.97-.67.23-11.89,19.81-10.63,17.97.67Z"/>
  <path class="cls-66" d="M31.94,80.18c.75,8.82-13.2,7.92-13.24-.31.63-8.06,13.69-8.76,13.24.31Z"/>
  <path class="cls-66" d="M237.35,79.82c.6,9.08-12.5,8.89-12.53.21-.26-8.48,12.97-8.73,12.53-.21Z"/>
  <path class="cls-50" d="M56.16,46.23c4.85-1.11,3.51,7.67-.49,6.84-4.4.02-4.82-7.94.49-6.84Z"/>
  <path class="cls-57" d="M209.54,62.76c-4.2-1.79-4.48-7.08.72-7.23,4.89.5,3.34,6.55-.72,7.23Z"/>
  <path class="cls-45" d="M204.59,49.44c-.72,5.05-7.38,4.53-7.1-.53.13-4.35,6.91-3.07,7.1.53Z"/>
  <path class="cls-7" d="M49.8,58.95c.65,4.86-6.77,4.33-6.29-.23-.22-4.22,7.24-4.39,6.29.23Z"/>
  <path class="cls-47" d="M190.05,36.51c.52,2.58-3.84,2.64-3.98.37.02-2.23,3.84-2.84,3.98-.37Z"/>
  <path class="cls-54" d="M219.94,71.26c-2.59-.23-2.9-3.71.06-3.25,2.56-.49,2.38,3.55-.06,3.25Z"/>
  <path class="cls-20" d="M92.2,16.66c2.42-.84,3.02,3.17.51,3.14-2.53.31-3.57-3.51-.51-3.14Z"/>
  <path class="cls-11" d="M166.55,18.03c-.17,2.69-4.16,2.06-3.91-.34.16-1.67,1.48-.91,2.33-1.01,1.03-.12,1.69.34,1.58,1.36Z"/>
  <path class="cls-3" d="M67.78,35.35c1.22-.15,1.51.48,1.52,1.59,0,1.21-.52,1.52-1.63,1.52-2.18.3-2.02-3.71.11-3.11Z"/>
  <path class="cls-64" d="M38.25,69.79c.17,2.32-3.61,1.78-3.25-.32.08-2.21,3.69-1.83,3.25.32Z"/>
  <path class="cls-8" d="M211.62,100.61c17.96,36.32-3.68,88.13-45.05,95.06-25.26.63-51.04.57-76.31.02-39.9-6.77-61.33-56.95-45.96-92.65,6.76-10.45,14.84-21.36,25.62-27.66,2.73,1.87,3.6-1.37,5.42-2,9.4-5.79,19.33-10.42,29.76-14.02,39.93-13.71,83.65,7.16,106.51,41.25Z"/>
  <path class="cls-19" d="M160.29,212.06c-14.68.54-20.04,13.87-15.58,23.94-6.33.96-12.7.18-19.04.44-1.35.11-1.84-.8-2.02-1.88-1.11-7.56-6.73-11.52-12.45-15.55-4.35-5.27-11.06-7.97-17.9-6.38-1.24-.78-.62-1.92-.56-2.95,23.52-1.69,47.93-2.15,71.23-.37q.68,3.19-3.68,2.75Z"/>
  <path class="cls-38" d="M211.62,100.61c-21.42-26.63-52.56-47.39-88.69-45.08.24-3.82,2.67-6.2,5.46-8.34,31.18-.48,70.14,16.12,83.22,53.42Z"/>
  <path class="cls-5" d="M70.02,75.7c-10.44,7.36-17.55,17.97-25.72,27.33,11.99-32.26,40.98-52.5,74.83-55.18.25,4.14-2.83,6.45-5.07,9.21-1.76,1.38-3.94,1.07-5.94,1.41-14.44,1.96-25.96,10.13-38.1,17.22Z"/>
  <path class="cls-61" d="M97.38,240.81c-16.01-1.01-16.99-24.16.49-24.21,15.57.24,15.46,24.23-.49,24.21Z"/>
  <path class="cls-10" d="M147.67,228.49c-.24-15.86,24.1-15.85,23.74.06-.18,15.43-24.14,16.37-23.74-.06Z"/>
  <path class="cls-63" d="M205.44,227.36c.95,4.19-3.17,8.64-9.56,9.42-3.81.46-9.07-5.54-9.12-9.95.49-11.85,19.12-12.96,18.67.53Z"/>
  <path class="cls-63" d="M51.4,226.58c-.93-10.16,19.34-12.13,18.76.17-1.06,13.38-17.75,12.84-18.76-.17Z"/>
  <path class="cls-63" d="M162.53,200.32v3.82c-22.49,2.72-45.64,1.02-68.25,0,0-1.28,0-2.55.01-3.83,22.42-.79,45.82-.81,68.24,0Z"/>
  <path class="cls-48" d="M159.54,205.09c1.29,1.58,4.16,1.16,4.68,3.72-20.17.65-41.41.94-61.47-.1-.2-4.03,5.2-.89,6.99-3.62.6-.69,1.42-.51,2.18-.51,15.76.49,32.17-.97,47.62.52Z"/>
  <path class="cls-21" d="M97.54,47.77c-6.48,2.59-13.04,5.01-19.02,8.68-1.67,1.62-4.33-.85-2.53-2.17,3.48-1.13.77-2.8.38-4.27,5.87-3.59,11.95-6.72,18.68-8.4,2.28,1.47,2.98,3.57,2.5,6.16Z"/>
  <path class="cls-42" d="M111.2,219.01c7.5,2,12.91,8.83,13.41,16.94-21.67,2.6-4.85-2.03-13.41-16.94Z"/>
  <path class="cls-17" d="M176.65,54.79c-5.43-2.29-10.85-4.59-16.28-6.88.2-2.45,1.12-4.54,3.13-6.05,5.93,1.86,11.48,4.52,16.85,7.57-.72,1.75-4.35,1.9-2.28,4.78-.08,1.17-.68,1.05-1.43.59Z"/>
  <path class="cls-68" d="M72.08,19c-6.03-.88-7.25-9.66.24-10.18,7.46-.75,6.65,10.51-.24,10.18Z"/>
  <path class="cls-68" d="M185.16,18.21c-7.54.81-6.91-10.32-.05-9.37,6.47-.85,6.46,10.7.05,9.37Z"/>
  <path class="cls-6" d="M113.63,56.36c2.08-2.68,4.37-5.21,5.49-8.51,3.12.14,6.12-1.33,9.27-.67-1.82,2.78-3.64,5.56-5.46,8.34,0,0,.07.08.07.08-3.08.72-6.06,2.85-9.37.76Z"/>
  <path class="cls-60" d="M97.54,47.77c-.83-2.05-1.67-4.11-2.5-6.16,3.84-1.02,8.77-4.12,12.45-1.62,5.79,6.58-6.05,6.34-9.95,7.78Z"/>
  <path class="cls-24" d="M16.42,128.2c.2,6.5-8.54,6.64-8.72.3-.3-5.62,8.93-6.17,8.72-.3Z"/>
  <path class="cls-30" d="M240.3,128.11c.03-5.78,9.58-5.12,8.78.77-.13,5.75-9.61,5.21-8.78-.77Z"/>
  <path class="cls-29" d="M90.26,195.68c25.44,0,50.87-.01,76.31-.02-1.2,1.12-2.7.69-4.07.69-23.96-.61-48.64,1.26-72.24-.67Z"/>
  <path class="cls-59" d="M102.75,208.71c20.49.03,40.98.07,61.47.1l-.1.11c-21.07,2.28-48.29-.13-71.38.76,3.17-2.01,6.72-.22,10.01-.97Z"/>
  <path class="cls-28" d="M163.51,41.86c-.67,2.21-1.83,4.17-3.14,6.05-2.79.16-5.11-1.64-7.8-1.87-.27-.78.16-1.31.64-1.83,1.82-.99.62-2.98,1.67-4.25,3.07-.25,5.84.89,8.64,1.89Z"/>
  <path class="cls-40" d="M159.54,205.09c-20.87-.09-41.75.19-62.62-.19-.88-.03-2.12.71-2.64-.76,22.75,0,45.5,0,68.25,0-.57,1.65-2.07.4-2.98.95Z"/>
  <path class="cls-72" d="M162.53,200.32c-22.75,0-45.49,0-68.24,0,20.76-2.29,44.01-.06,65.6-.78.88,0,2.13-.67,2.64.79Z"/>
  <path class="cls-46" d="M35.72,125.57c.05,4.16.09,8.32.14,12.48-1.62,1.22-2.88.83-3.86-.85,0-3.1,0-6.21,0-9.31,1.25-.76,2.16-2.06,3.72-2.32Z"/>
  <path class="cls-73" d="M224.98,124.71c1.3,4.43-.69,8.83-.15,13.25-3.75,1.76-3.7-.36-3.1-3.04.06-2.36.12-4.71.18-7.07,1.27-.81,2.01-2.13,3.07-3.15Z"/>
  <path class="cls-14" d="M112.76,235.22c10.42,2,21.32.12,31.95.79-.69,1.45-2.03.85-3.07.85-8.9.01-17.8-.02-26.7-.14-.8-.01-2.92,1.08-2.18-1.5Z"/>
  <path class="cls-49" d="M221.73,134.92c-.19,2.26.54,3.58,3.1,3.04-.71,2.09.25,6.86-3.11,6.24-.91-.05-1.66-.65-1.28-1.46,1.21-2.51-.33-5.42,1.29-7.82Z"/>
  <path class="cls-1" d="M32,137.19c1.14.93,2.49.93,3.86.85.23.43.73.92.66,1.29-.33,1.66,1.36,4.29-1.46,4.77-3.34.57-1.98-2.37-2.37-3.96-.24-.98-.45-1.97-.68-2.96Z"/>
  <path class="cls-18" d="M154.87,39.97c0,.25,0,.49,0,.74-1.41,1.05-3.13,1.98-1.55,4.15-.25.4-.5.79-.75,1.19-8.78.82-3.43-10.46,2.3-6.08Z"/>
  <path class="cls-22" d="M221.91,123.14c-.54-1.44-2.24-6.66.19-6.78.93-.02,1.92,0,1.99,1.25.58,2.34,2.18,6.83-2.18,5.54Z"/>
  <path class="cls-12" d="M32.1,122.37c-.41-2.44.06-6.45,3.45-5.26,1.73.2.42,1.23.38,1.93-.07,1.14-.09,2.27-.14,3.41-1.25.99-2.48,1.1-3.69-.08Z"/>
  <path class="cls-23" d="M32.1,122.37c1.23.03,2.46.05,3.69.08.2,2.49-.33,6.26-3.79,5.43.03-1.84.07-3.67.1-5.51Z"/>
  <path class="cls-39" d="M221.91,123.14c.98-.23,1.97-.47,2.95-.7.08,2.35.86,6.26-2.95,5.41,0-1.57,0-3.14,0-4.71Z"/>
  <path class="cls-58" d="M76.36,50.01c1.2.93,3.43,1.03,2.98,3.32-1.74,4.1-6.91-.42-2.98-3.32Z"/>
  <path class="cls-43" d="M176.65,54.79c.48-.2.96-.39,1.43-.59,2.89,1.27,4.25.06,4.14-4.14,1.71,3.53.31,5.59-1,6.54-1.51,1.09-3.14-.85-4.57-1.81Z"/>
  <path class="cls-32" d="M164.08,209.71c.01-.26.02-.52.03-.79,3.09,2.77-1.4,5.32-3.83,3.14,1.27-.78,4.39,1.42,3.79-2.36Z"/>
  <path class="cls-52" d="M93.3,212.63c2.66-1.06,5.32-1.22,7.97.01-2.66,0-5.32,0-7.97-.01Z"/>
  <path class="cls-16" d="M75.63,50.85c-.26,1.39-.19,2.72.71,3.9-.28.28-.56.57-.84.85-1.06-1.61-3.04-3.25.13-4.75Z"/>
  <path class="cls-4" d="M175.15,224.34c1.2,2.64,1.13,5.29.05,7.94-.02-2.65-.04-5.3-.05-7.94Z"/>
  <path class="cls-69" d="M136.22,59.38c59.54,1.03,101.02,82.57,45.99,120.02-5.2,3.35-11.25,5.51-17.48,5.69-26.62-.28-53.44.56-79.97-.3-61.86-6.94-46.7-132.87,51.46-125.41Z"/>
  <path class="cls-62" d="M113.63,56.36c3.12-.25,6.25-.51,9.37-.76-4.97,4.12-12.06,2.93-18.01,4.56-11.02,2.19-20.68,7.22-29.47,14.07-1.74.85-2.87,3.97-5.5,1.47,12.11-11.07,27.89-16.6,43.61-19.34Z"/>
  <path class="cls-33" d="M84.76,184.79c27.54,0,55.09,0,82.63-.01-26.97,1.37-55.61,1.21-82.63.01Z"/>
  <path class="cls-31" d="M75.52,74.23c-1.52-3.02,27.2-17.4,29.48-14.07-10.11,4.06-20.15,8.4-29.48,14.07Z"/>
  <path class="cls-55" d="M136.22,59.38c-4.95,0-9.89-.02-14.84-.03,4.95-1.1,9.9-1.14,14.84.03Z"/>
  <path class="cls-37" d="M105.06,233.21c.27,2.51-1.14,2.99-3.11,2.87-1.85-.12-3.26-.57-3.14-2.91-.07-4.26,7.23-4.32,6.25.04Z"/>
  <path class="cls-71" d="M154.29,229.82c4.44-.17,3.95,7.29-.24,6.71-4.23,0-4-6.92.24-6.71Z"/>
  <path class="cls-56" d="M105.78,42.47c.15,2.46-1.78,2.59-2.86,2.79-1.36.25-1.65-1.35-1.71-2.47-.37-2.96,4.65-2.8,4.57-.32Z"/>
  <path class="cls-67" d="M153.32,44.85c-1.48-.15-2.48-.77-2.16-2.45.43-2.26,2.32-1.47,3.71-1.7,1.23,2.04,1.32,3.64-1.55,4.15Z"/>
  <path class="cls-19" d="M133.11,63.21c57.83.97,99.04,73.36,47.43,112.59-4.72,3.41-10.67,5.47-16.56,5.4-24.59-.23-49.32.48-73.84-.24-27.51-5.3-42.62-37.15-35.95-62.95,7.53-35.71,44.12-56.7,78.92-54.79Z"/>
  <path class="cls-36" d="M90.14,180.94c25.76-.04,51.53-.19,77.29-.04-25.27,1.32-51.99,1.23-77.29.04Z"/>
  <path class="cls-65" d="M133.11,63.21c-3.13,0-6.26,0-9.38,0,3.13-1.06,6.26-1.07,9.38,0Z"/>
  <path class="cls-53" d="M87.06,107.68c33.45-.03,30.38,49.12-.23,48-30.58-.29-31.42-48.24.23-48Z"/>
  <path class="cls-27" d="M169.45,107.67c33.2-.2,31.66,49.22-1.19,48.06-28.94-1.32-31-47.48,1.19-48.06Z"/>
  <path class="cls-13" d="M127.31,176.15c-10.19.16-17.08-5.32-22.57-13.2-.85-1.22-.56-2.17.65-2.87,1.55-.9,2.7-.39,3.53,1.1,7.69,14.45,30.13,14.78,37.99.26.57-1.37,1.49-2.26,2.99-1.53,1.78.87,1.29,2.3.52,3.62-4.86,8.41-13.42,13.07-23.1,12.63Z"/>
  <path class="cls-15" d="M91.17,116.13c19.16,4.48,13.66,32.67-5.14,31.17-10.41-1.19-17.96-12.27-13.04-21.84,3.29-2.19,8.44-.56,6.89,4.04-1.08,10.58,13.74,13.61,14.9,1.97-.04-1.95,1.4-3.21,2.38-4.71,2.48-3.83-2.56-8.34-6.08-5.43-2.02,2.5-4.88,3.47-8.09,2.9-2.74-.97-5.92.16-8.47-1.76,3.22-5.92,10.46-7.44,16.63-6.33Z"/>
  <path class="cls-70" d="M79.58,127.29c-1.45-3.25-4.49-.85-6.58-1.84.23-1.14.44-2.3,1.54-2.99,2.94.13,5.93-.26,8.79.81-.45,2.09-1.95,3.19-3.75,4.01Z"/>
  <path class="cls-25" d="M91.17,116.13c-2.65.02-5.29.03-7.94.05,2.64-1.16,5.29-1.19,7.94-.05Z"/>
  <path class="cls-34" d="M153.45,128.62c3.66-16.24,28.52-17.61,32.07-.69,1.5,6.32-.47,11.64-5.6,15.73-3.9-.79-1.27-9.95-2.08-13.12-.12-3.08,2.25-6.24-1.28-8.38-2.77-2.1-4.89-.15-7.22,1.4-6.27.52-7.92,9.89-15.88,5.07Z"/>
  <path class="cls-26" d="M178.25,129.37c2.43,4.54-.9,9.95,1.66,14.29-10.95,9.5-28.49-1.03-26.47-15.04,2.51,0,5.02,0,7.53.01,1.01.66.93,1.74,1.07,2.74.68,5.01,4,8.21,8.14,7.85,8.84-.95,5.22-9.49,8.06-9.86Z"/>
  <path class="cls-35" d="M173.67,116.13c-2.66.01-5.33.02-7.99.03,2.66-1.16,5.32-1.18,7.99-.03Z"/>
  <path class="cls-9" d="M79.58,127.29c1.05-1.52,2.2-2.96,3.75-4.01,1.54.02,3.08.04,4.62.06,1.5,3.37,3.66,5.92,7.65,6.23,2.43,15.77-21.54,12.14-16.02-2.27Z"/>
  <path class="cls-41" d="M95.6,129.56c-4.37,1.16-7.39-1.29-7.65-6.23,5.12-9.75,16.78.72,7.65,6.23Z"/>
  <path class="cls-53" d="M177.35,130.05c5.17,10.71-17.84,16.49-16.37-1.41,2.06-2.76,3.85-5.91,8.08-5.47.81,4.95,3.07,7.39,8.29,6.88Z"/>
  <path class="cls-44" d="M177.35,130.05c-6.01,2.35-8.96-.1-8.29-6.88,5.26-7.58,14.96,1.14,8.29,6.88Z"/>
</svg>